<?xml version="1.0" encoding="UTF-8"?>
<svg xmlns="http://www.w3.org/2000/svg" xmlns:xlink="http://www.w3.org/1999/xlink" width="128px" height="128px" viewBox="0 0 128 128" version="1.1">
<g id="surface1">
<path style=" stroke:none;fill-rule:nonzero;fill:rgb(0%,0%,0%);fill-opacity:1;" d="M 122.765625 17.816406 L 126.710938 1.867188 L 126.539062 0.878906 L 87.484375 16.929688 C 91.648438 7.535156 90.21875 0 90.21875 0 C 90.21875 0 77.746094 12.421875 68.3125 12.097656 C 58.882812 11.773438 55.839844 7.847656 41.378906 15.042969 C 26.914062 22.234375 22.828125 44.304688 18.636719 49.046875 C 14.441406 53.789062 1.289062 69.234375 1.289062 69.234375 L 1.316406 69.507812 L 13.175781 63.617188 C 13.175781 63.617188 9.921875 68.398438 3.011719 82.925781 L 2.691406 82.457031 L 2.699219 82.5625 C 2.699219 82.5625 8.257812 95.800781 13.707031 93.351562 C 14.257812 93.101562 14.871094 92.695312 15.546875 92.160156 C 17.742188 94.066406 20.605469 95.941406 23.769531 96.457031 C 23.769531 96.457031 21.628906 92.574219 19.839844 88.15625 C 20.324219 87.671875 20.820312 87.167969 21.320312 86.660156 L 21.089844 86.914062 L 25.601562 89.503906 L 25.105469 82.878906 C 25.121094 82.867188 25.132812 82.847656 25.152344 82.835938 L 29.589844 85.378906 L 29.039062 79.355469 C 29.589844 78.902344 30.152344 78.46875 30.722656 78.0625 L 35.347656 50.769531 L 54.476562 30.417969 L 52.953125 36.382812 C 49.078125 51.257812 41.792969 54.769531 41.792969 54.769531 L 38.753906 56.570312 C 36.496094 60.738281 35.542969 61.761719 34.765625 75.753906 C 36.589844 75.039062 38.328125 74.867188 39.90625 75.53125 C 48.082031 78.964844 50.910156 94.328125 48.707031 98.578125 C 48.160156 99.644531 46.847656 101.460938 45.191406 103.59375 L 41.871094 103.59375 L 41.828125 107.789062 C 41.714844 107.929688 41.597656 108.0625 41.488281 108.203125 L 38.113281 108.203125 L 38.074219 112.292969 C 37.773438 112.652344 37.476562 112.996094 37.191406 113.332031 C 34.019531 113.433594 30 109.121094 30 109.121094 C 30 113.046875 32.097656 119.089844 32.097656 119.089844 C 32.097656 119.089844 32.234375 118.988281 32.46875 118.808594 C 32.265625 119.046875 32.152344 119.171875 32.152344 119.171875 C 32.152344 119.171875 40.636719 128 45.984375 124.730469 C 50.734375 121.824219 63.042969 106.691406 73.664062 99.527344 L 105.804688 86.320312 L 110.042969 69.195312 L 85.546875 79.257812 L 85.546875 63.878906 L 114.289062 52.070312 L 118.527344 34.941406 L 85.554688 48.492188 L 85.554688 33.105469 Z M 122.765625 17.816406 "/>
</g>
</svg>
